<mxfile host="app.diagrams.net" modified="2023-11-24T14:32:53.629Z" agent="Mozilla/5.0 (Windows NT 10.0; Win64; x64) AppleWebKit/537.36 (KHTML, like Gecko) Chrome/119.0.0.0 Safari/537.36" etag="RUT522T1npzz302fTTIQ" version="22.1.4" type="github">
  <diagram name="Page-1" id="eFb8usUrMZtltQ-7yKhY">
    <mxGraphModel dx="1500" dy="796" grid="1" gridSize="10" guides="1" tooltips="1" connect="1" arrows="1" fold="1" page="1" pageScale="1" pageWidth="850" pageHeight="1100" math="0" shadow="0">
      <root>
        <mxCell id="0" />
        <mxCell id="1" parent="0" />
        <mxCell id="OvxOLr6vL5xSemYyNv8_-3" value="sefi de departament" style="rounded=0;whiteSpace=wrap;html=1;" vertex="1" parent="1">
          <mxGeometry x="500" y="180" width="180" height="60" as="geometry" />
        </mxCell>
        <mxCell id="OvxOLr6vL5xSemYyNv8_-9" value="decan" style="rounded=0;whiteSpace=wrap;html=1;" vertex="1" parent="1">
          <mxGeometry x="290" y="20" width="180" height="60" as="geometry" />
        </mxCell>
        <mxCell id="OvxOLr6vL5xSemYyNv8_-10" value="profesori" style="rounded=0;whiteSpace=wrap;html=1;" vertex="1" parent="1">
          <mxGeometry x="730" y="180" width="180" height="60" as="geometry" />
        </mxCell>
        <mxCell id="OvxOLr6vL5xSemYyNv8_-12" value="portar" style="rounded=0;whiteSpace=wrap;html=1;" vertex="1" parent="1">
          <mxGeometry x="490" y="490" width="180" height="60" as="geometry" />
        </mxCell>
        <mxCell id="OvxOLr6vL5xSemYyNv8_-13" value="femei de serviciu" style="rounded=0;whiteSpace=wrap;html=1;" vertex="1" parent="1">
          <mxGeometry x="490" y="400" width="180" height="60" as="geometry" />
        </mxCell>
        <mxCell id="OvxOLr6vL5xSemYyNv8_-14" value="universitatea" style="rounded=0;whiteSpace=wrap;html=1;" vertex="1" parent="1">
          <mxGeometry x="40" y="120" width="180" height="60" as="geometry" />
        </mxCell>
        <mxCell id="OvxOLr6vL5xSemYyNv8_-16" value="contabil" style="rounded=0;whiteSpace=wrap;html=1;" vertex="1" parent="1">
          <mxGeometry x="480" y="600" width="180" height="60" as="geometry" />
        </mxCell>
        <mxCell id="OvxOLr6vL5xSemYyNv8_-17" value="secretar/Äƒ" style="rounded=0;whiteSpace=wrap;html=1;" vertex="1" parent="1">
          <mxGeometry x="600" y="50" width="180" height="60" as="geometry" />
        </mxCell>
        <mxCell id="OvxOLr6vL5xSemYyNv8_-18" value="" style="edgeStyle=entityRelationEdgeStyle;fontSize=12;html=1;endArrow=ERoneToMany;rounded=0;exitX=0.913;exitY=1.003;exitDx=0;exitDy=0;exitPerimeter=0;entryX=0;entryY=0.5;entryDx=0;entryDy=0;" edge="1" parent="1" source="OvxOLr6vL5xSemYyNv8_-14" target="OvxOLr6vL5xSemYyNv8_-41">
          <mxGeometry width="100" height="100" relative="1" as="geometry">
            <mxPoint x="200" y="220" as="sourcePoint" />
            <mxPoint x="270" y="180" as="targetPoint" />
          </mxGeometry>
        </mxCell>
        <mxCell id="OvxOLr6vL5xSemYyNv8_-21" value="personal auxiliar" style="rounded=0;whiteSpace=wrap;html=1;" vertex="1" parent="1">
          <mxGeometry x="220" y="430" width="180" height="60" as="geometry" />
        </mxCell>
        <mxCell id="OvxOLr6vL5xSemYyNv8_-22" value="" style="edgeStyle=entityRelationEdgeStyle;fontSize=12;html=1;endArrow=ERoneToMany;rounded=0;exitX=1;exitY=0.75;exitDx=0;exitDy=0;entryX=0;entryY=0.5;entryDx=0;entryDy=0;" edge="1" parent="1" source="OvxOLr6vL5xSemYyNv8_-21" target="OvxOLr6vL5xSemYyNv8_-12">
          <mxGeometry width="100" height="100" relative="1" as="geometry">
            <mxPoint x="250" y="690" as="sourcePoint" />
            <mxPoint x="350" y="435" as="targetPoint" />
          </mxGeometry>
        </mxCell>
        <mxCell id="OvxOLr6vL5xSemYyNv8_-23" value="" style="edgeStyle=entityRelationEdgeStyle;fontSize=12;html=1;endArrow=ERoneToMany;rounded=0;entryX=0;entryY=0.75;entryDx=0;entryDy=0;exitX=1;exitY=0.25;exitDx=0;exitDy=0;" edge="1" parent="1" source="OvxOLr6vL5xSemYyNv8_-21" target="OvxOLr6vL5xSemYyNv8_-13">
          <mxGeometry width="100" height="100" relative="1" as="geometry">
            <mxPoint x="220" y="500" as="sourcePoint" />
            <mxPoint x="320" y="400" as="targetPoint" />
          </mxGeometry>
        </mxCell>
        <mxCell id="OvxOLr6vL5xSemYyNv8_-24" value="" style="edgeStyle=entityRelationEdgeStyle;fontSize=12;html=1;endArrow=ERmany;startArrow=ERmany;rounded=0;entryX=0;entryY=0.5;entryDx=0;entryDy=0;exitX=1;exitY=0.5;exitDx=0;exitDy=0;" edge="1" parent="1" source="OvxOLr6vL5xSemYyNv8_-3" target="OvxOLr6vL5xSemYyNv8_-10">
          <mxGeometry width="100" height="100" relative="1" as="geometry">
            <mxPoint x="560" y="210" as="sourcePoint" />
            <mxPoint x="580" y="210" as="targetPoint" />
          </mxGeometry>
        </mxCell>
        <mxCell id="OvxOLr6vL5xSemYyNv8_-25" value="cursuri" style="rounded=0;whiteSpace=wrap;html=1;" vertex="1" parent="1">
          <mxGeometry x="950" y="180" width="180" height="60" as="geometry" />
        </mxCell>
        <mxCell id="OvxOLr6vL5xSemYyNv8_-26" value="" style="edgeStyle=entityRelationEdgeStyle;fontSize=12;html=1;endArrow=ERmany;startArrow=ERmany;rounded=0;exitX=1;exitY=0.5;exitDx=0;exitDy=0;entryX=0;entryY=0.5;entryDx=0;entryDy=0;" edge="1" parent="1" source="OvxOLr6vL5xSemYyNv8_-10" target="OvxOLr6vL5xSemYyNv8_-25">
          <mxGeometry width="100" height="100" relative="1" as="geometry">
            <mxPoint x="370" y="340" as="sourcePoint" />
            <mxPoint x="470" y="240" as="targetPoint" />
          </mxGeometry>
        </mxCell>
        <mxCell id="OvxOLr6vL5xSemYyNv8_-27" value="cantina" style="rounded=0;whiteSpace=wrap;html=1;" vertex="1" parent="1">
          <mxGeometry x="450" y="290" width="180" height="60" as="geometry" />
        </mxCell>
        <mxCell id="OvxOLr6vL5xSemYyNv8_-28" value="bucatari" style="rounded=0;whiteSpace=wrap;html=1;" vertex="1" parent="1">
          <mxGeometry x="700" y="290" width="180" height="60" as="geometry" />
        </mxCell>
        <mxCell id="OvxOLr6vL5xSemYyNv8_-29" value="" style="edgeStyle=entityRelationEdgeStyle;fontSize=12;html=1;endArrow=ERoneToMany;rounded=0;exitX=1;exitY=0.5;exitDx=0;exitDy=0;" edge="1" parent="1" source="OvxOLr6vL5xSemYyNv8_-27" target="OvxOLr6vL5xSemYyNv8_-28">
          <mxGeometry width="100" height="100" relative="1" as="geometry">
            <mxPoint x="430" y="330" as="sourcePoint" />
            <mxPoint x="530" y="230" as="targetPoint" />
          </mxGeometry>
        </mxCell>
        <mxCell id="OvxOLr6vL5xSemYyNv8_-30" value="" style="edgeStyle=entityRelationEdgeStyle;fontSize=12;html=1;endArrow=ERmany;startArrow=ERmany;rounded=0;exitX=1;exitY=0.5;exitDx=0;exitDy=0;" edge="1" parent="1" source="OvxOLr6vL5xSemYyNv8_-28">
          <mxGeometry width="100" height="100" relative="1" as="geometry">
            <mxPoint x="660" y="540" as="sourcePoint" />
            <mxPoint x="940" y="320" as="targetPoint" />
          </mxGeometry>
        </mxCell>
        <mxCell id="OvxOLr6vL5xSemYyNv8_-31" value="ajutoare" style="rounded=0;whiteSpace=wrap;html=1;" vertex="1" parent="1">
          <mxGeometry x="940" y="290" width="180" height="60" as="geometry" />
        </mxCell>
        <mxCell id="OvxOLr6vL5xSemYyNv8_-32" value="" style="edgeStyle=entityRelationEdgeStyle;fontSize=12;html=1;endArrow=ERmandOne;startArrow=ERmandOne;rounded=0;exitX=1;exitY=0.5;exitDx=0;exitDy=0;entryX=0;entryY=0.5;entryDx=0;entryDy=0;" edge="1" parent="1" source="OvxOLr6vL5xSemYyNv8_-14" target="OvxOLr6vL5xSemYyNv8_-9">
          <mxGeometry width="100" height="100" relative="1" as="geometry">
            <mxPoint x="370" y="330" as="sourcePoint" />
            <mxPoint x="470" y="230" as="targetPoint" />
          </mxGeometry>
        </mxCell>
        <mxCell id="OvxOLr6vL5xSemYyNv8_-33" value="" style="edgeStyle=entityRelationEdgeStyle;fontSize=12;html=1;endArrow=ERmandOne;startArrow=ERmandOne;rounded=0;exitX=0.5;exitY=1;exitDx=0;exitDy=0;entryX=0;entryY=0.25;entryDx=0;entryDy=0;" edge="1" parent="1" source="OvxOLr6vL5xSemYyNv8_-14" target="OvxOLr6vL5xSemYyNv8_-21">
          <mxGeometry width="100" height="100" relative="1" as="geometry">
            <mxPoint x="540" y="400" as="sourcePoint" />
            <mxPoint x="640" y="300" as="targetPoint" />
          </mxGeometry>
        </mxCell>
        <mxCell id="OvxOLr6vL5xSemYyNv8_-34" value="" style="edgeStyle=entityRelationEdgeStyle;fontSize=12;html=1;endArrow=ERmany;startArrow=ERmany;rounded=0;exitX=1;exitY=0.5;exitDx=0;exitDy=0;entryX=0;entryY=0.5;entryDx=0;entryDy=0;" edge="1" parent="1" source="OvxOLr6vL5xSemYyNv8_-25" target="OvxOLr6vL5xSemYyNv8_-35">
          <mxGeometry width="100" height="100" relative="1" as="geometry">
            <mxPoint x="750" y="410" as="sourcePoint" />
            <mxPoint x="1100" y="210" as="targetPoint" />
          </mxGeometry>
        </mxCell>
        <mxCell id="OvxOLr6vL5xSemYyNv8_-35" value="studenti" style="rounded=0;whiteSpace=wrap;html=1;" vertex="1" parent="1">
          <mxGeometry x="1170" y="180" width="180" height="60" as="geometry" />
        </mxCell>
        <mxCell id="OvxOLr6vL5xSemYyNv8_-36" value="" style="edgeStyle=entityRelationEdgeStyle;fontSize=12;html=1;endArrow=ERoneToMany;rounded=0;exitX=0.817;exitY=0.989;exitDx=0;exitDy=0;exitPerimeter=0;entryX=0;entryY=0.5;entryDx=0;entryDy=0;" edge="1" parent="1" source="OvxOLr6vL5xSemYyNv8_-14" target="OvxOLr6vL5xSemYyNv8_-27">
          <mxGeometry width="100" height="100" relative="1" as="geometry">
            <mxPoint x="610" y="350" as="sourcePoint" />
            <mxPoint x="710" y="250" as="targetPoint" />
          </mxGeometry>
        </mxCell>
        <mxCell id="OvxOLr6vL5xSemYyNv8_-37" value="personal administrativ" style="rounded=0;whiteSpace=wrap;html=1;" vertex="1" parent="1">
          <mxGeometry x="210" y="590" width="180" height="60" as="geometry" />
        </mxCell>
        <mxCell id="OvxOLr6vL5xSemYyNv8_-38" value="" style="edgeStyle=entityRelationEdgeStyle;fontSize=12;html=1;endArrow=ERmany;startArrow=ERmany;rounded=0;entryX=0;entryY=0.5;entryDx=0;entryDy=0;" edge="1" parent="1" target="OvxOLr6vL5xSemYyNv8_-37">
          <mxGeometry width="100" height="100" relative="1" as="geometry">
            <mxPoint x="80" y="180" as="sourcePoint" />
            <mxPoint x="710" y="300" as="targetPoint" />
          </mxGeometry>
        </mxCell>
        <mxCell id="OvxOLr6vL5xSemYyNv8_-40" value="" style="edgeStyle=entityRelationEdgeStyle;fontSize=12;html=1;endArrow=ERmandOne;startArrow=ERmandOne;rounded=0;exitX=1;exitY=0.5;exitDx=0;exitDy=0;entryX=0;entryY=0.25;entryDx=0;entryDy=0;" edge="1" parent="1" source="OvxOLr6vL5xSemYyNv8_-37" target="OvxOLr6vL5xSemYyNv8_-16">
          <mxGeometry width="100" height="100" relative="1" as="geometry">
            <mxPoint x="610" y="550" as="sourcePoint" />
            <mxPoint x="710" y="450" as="targetPoint" />
          </mxGeometry>
        </mxCell>
        <mxCell id="OvxOLr6vL5xSemYyNv8_-41" value="facultate" style="rounded=0;whiteSpace=wrap;html=1;" vertex="1" parent="1">
          <mxGeometry x="280" y="150" width="180" height="60" as="geometry" />
        </mxCell>
        <mxCell id="OvxOLr6vL5xSemYyNv8_-42" value="" style="edgeStyle=entityRelationEdgeStyle;fontSize=12;html=1;endArrow=ERmandOne;startArrow=ERmandOne;rounded=0;exitX=1;exitY=0.25;exitDx=0;exitDy=0;entryX=0;entryY=0.5;entryDx=0;entryDy=0;" edge="1" parent="1" source="OvxOLr6vL5xSemYyNv8_-41" target="OvxOLr6vL5xSemYyNv8_-3">
          <mxGeometry width="100" height="100" relative="1" as="geometry">
            <mxPoint x="610" y="410" as="sourcePoint" />
            <mxPoint x="710" y="310" as="targetPoint" />
          </mxGeometry>
        </mxCell>
        <mxCell id="OvxOLr6vL5xSemYyNv8_-43" value="" style="edgeStyle=entityRelationEdgeStyle;fontSize=12;html=1;endArrow=ERmandOne;startArrow=ERmandOne;rounded=0;exitX=0.911;exitY=-0.062;exitDx=0;exitDy=0;exitPerimeter=0;entryX=0;entryY=0.5;entryDx=0;entryDy=0;" edge="1" parent="1" source="OvxOLr6vL5xSemYyNv8_-41" target="OvxOLr6vL5xSemYyNv8_-17">
          <mxGeometry width="100" height="100" relative="1" as="geometry">
            <mxPoint x="620" y="380" as="sourcePoint" />
            <mxPoint x="720" y="280" as="targetPoint" />
          </mxGeometry>
        </mxCell>
      </root>
    </mxGraphModel>
  </diagram>
</mxfile>
